<svg width="100" height="100" viewBox="0 0 100 100" fill="none" xmlns="http://www.w3.org/2000/svg">
<rect width="100" height="100" fill="white"/>
<path d="M79.1874 50.66C79.1874 48.728 79.0162 46.8937 78.7227 45.1084H51.0869V56.1383H66.9103C66.201 59.7578 64.1222 62.8149 61.0407 64.8937V72.2306H70.4809C76.0081 67.1192 79.1874 59.5866 79.1874 50.66Z" fill="#4285F4"/>
<path d="M51.0869 79.3478C59.0108 79.3478 65.6385 76.7065 70.4809 72.231L61.0407 64.894C58.3994 66.6549 55.0489 67.731 51.0869 67.731C43.4321 67.731 36.9511 62.5707 34.6277 55.6006H24.894V63.1576C29.712 72.7446 39.6168 79.3478 51.0869 79.3478Z" fill="#34A853"/>
<path d="M34.6278 55.6004C34.0164 53.8395 33.6985 51.9564 33.6985 49.9999C33.6985 48.0433 34.0409 46.1602 34.6278 44.3993V36.8423H24.8941C22.8887 40.8042 21.7393 45.2553 21.7393 49.9999C21.7393 54.7444 22.8887 59.1955 24.8941 63.1575L34.6278 55.6004Z" fill="#FBBC05"/>
<path d="M51.0869 32.2689C55.4157 32.2689 59.2799 33.7608 62.3369 36.6711L70.701 28.307C65.6385 23.5624 59.0108 20.6521 51.0869 20.6521C39.6168 20.6521 29.712 27.2554 24.894 36.8423L34.6277 44.3994C36.9511 37.4293 43.4321 32.2689 51.0869 32.2689Z" fill="#EA4335"/>
</svg>
