<svg width="100" height="100" viewBox="0 0 100 100" fill="none" xmlns="http://www.w3.org/2000/svg">
<rect width="100" height="100" fill="white"/>
<path d="M47.319 22.0604C44.2692 22.3996 39.6946 23.8087 37.0918 25.2177C30.0985 28.9491 25.3661 34.768 23 42.5178C22.5267 44.0312 21.9746 48.154 22.0009 50.0849C22.0009 51.781 22.5267 55.9299 22.8422 56.9214C23 57.3911 23.3417 58.5131 23.6309 59.3742C24.1042 60.8355 26.3915 65.4279 26.7858 65.741C26.8647 65.8193 27.2854 66.3412 27.6797 66.9414C28.6525 68.3765 31.2027 70.9337 33.1219 72.3949C34.5942 73.5169 38.7482 75.8914 39.274 75.9175C39.4054 75.9175 39.4317 74.926 39.3528 73.6213C39.1688 70.7249 39.7209 66.7848 40.904 62.7664C41.1143 62.0879 41.2721 61.2008 41.2721 60.8094C41.2721 60.418 41.3772 60.0005 41.5087 59.87C41.6401 59.7134 41.8768 58.9567 42.0082 58.1739C42.166 57.3911 42.4289 56.1908 42.6129 55.5124C42.8758 54.4947 42.8495 54.1033 42.4814 53.0074C41.9556 51.3374 41.9293 48.6237 42.4552 47.319C43.6908 44.2138 45.0579 43.0396 47.3715 43.0396C50.1584 43.0396 51.4992 45.1271 50.9734 48.6237C50.7368 50.2154 50.0795 52.7204 49.6588 53.5032C49.5537 53.738 49.3696 54.3903 49.2908 54.9383C49.1856 55.5124 48.9753 56.3213 48.8438 56.7649C48.4758 57.7825 49.1856 59.7656 50.1321 60.5223C51.026 61.2269 52.8926 61.4356 54.6015 61.0442C55.8109 60.7833 56.3104 60.4701 57.5724 59.2698C59.0709 57.8086 60.2015 56.1125 60.2015 55.3036C60.2015 55.0688 60.3329 54.7556 60.4907 54.5991C61.2268 53.8685 61.6212 48.1801 61.0691 45.7795C60.4644 43.144 58.5977 40.5607 56.179 39.0473C53.7602 37.5078 48.765 37.0642 45.6889 38.1079C43.5331 38.8386 41.6139 40.065 40.3782 41.5001C39.274 42.7787 38.1172 44.8662 38.1172 45.5968C38.1172 45.8577 37.9857 46.197 37.828 46.3535C37.6702 46.5101 37.4862 47.5016 37.4073 48.5715C37.2759 50.1632 37.381 50.8938 37.8543 52.4594C38.1698 53.5293 38.7482 54.7817 39.0899 55.2514C39.7998 56.1908 39.7998 56.5561 39.1425 59.0611C38.9585 59.7395 38.643 60.3658 38.459 60.4441C36.8026 61.0703 33.4374 57.1302 32.3069 53.2161C31.8863 51.7288 31.86 46.4318 32.2806 44.8662C32.4646 44.2138 32.7801 43.3267 32.9905 42.857C33.2008 42.4134 33.3848 41.9698 33.3848 41.8654C33.3848 41.761 33.9106 40.8739 34.5679 39.9084C37.9857 34.7941 43.5331 32.0803 50.5527 32.0803C52.1565 32.0803 53.8128 32.1847 54.2597 32.3152C57.8879 33.4372 58.8606 33.8025 60.2803 34.6375C63.0409 36.2814 65.039 38.5254 67.0371 42.2829C67.1685 42.5178 67.3526 43.144 67.4314 43.6659C67.5366 44.1878 67.7206 44.6835 67.8521 44.7618C67.9835 44.8401 68.0887 46.5362 68.0887 48.5454C68.0887 52.1724 67.8258 53.6336 66.7216 56.6083C65.4859 59.87 62.3047 63.4709 59.4127 64.88C57.7564 65.6628 54.6541 66.5239 53.4184 66.5239C51.7621 66.5239 48.502 65.167 47.6082 64.0711C47.1875 63.5753 46.7931 63.7579 46.7931 64.4625C46.7931 64.7234 46.688 65.167 46.5302 65.4279C46.3988 65.6628 46.1622 66.3934 46.0307 67.0457C45.2683 70.4901 44.1904 73.2821 42.534 75.8914C42.0345 76.7003 42.4552 77.17 43.8223 77.3527C44.5058 77.4571 45.426 77.6397 45.8467 77.7702C46.8983 78.1094 52.6034 78.0572 54.5226 77.718C56.2578 77.4049 59.071 76.6221 60.3329 76.1002C68.2727 72.8646 74.2933 66.289 76.8961 57.913C78.2895 53.451 78.3684 48.2583 77.1064 43.0396C76.6858 41.3436 76.5543 40.9521 75.4238 38.3428C73.7938 34.5331 70.1131 30.0711 66.3798 27.3313C63.1723 24.9829 60.0174 23.626 55.101 22.4518C53.7339 22.1387 48.8701 21.8777 47.319 22.0604Z" fill="#D71818"/>
</svg>
