<svg width="100" height="100" viewBox="0 0 100 100" fill="none" xmlns="http://www.w3.org/2000/svg">
<rect width="100" height="100" fill="white"/>
<path d="M39.6114 73C60.7445 73 72.3014 55.689 72.3014 40.6774C72.3014 40.1858 72.2913 39.6964 72.2689 39.209C74.5176 37.6002 76.4583 35.6082 78 33.3264C75.9413 34.2314 73.726 34.8404 71.402 35.1151C73.7742 33.7087 75.5952 31.4838 76.4544 28.8317C74.199 30.1546 71.7317 31.0872 69.1587 31.5892C67.0621 29.381 64.0773 28 60.7721 28C54.4273 28 49.2821 33.0875 49.2821 39.3586C49.2821 40.2501 49.3831 41.117 49.5802 41.9489C40.0312 41.4738 31.5638 36.9533 25.897 30.0797C24.8764 31.8133 24.3395 33.7837 24.3413 35.7895C24.3413 39.7308 26.3696 43.2101 29.4541 45.2457C27.6296 45.1906 25.8451 44.7033 24.2507 43.8248C24.249 43.8725 24.249 43.919 24.249 43.9699C24.249 49.4715 28.2093 54.065 33.4665 55.1059C32.4791 55.3717 31.4602 55.5062 30.4369 55.5056C29.6978 55.5056 28.9776 55.4337 28.2776 55.3008C29.7403 59.8145 33.9817 63.0992 39.0105 63.191C35.078 66.2385 30.1244 68.0537 24.7406 68.0537C23.8247 68.0545 22.9096 68.0019 22 67.8963C27.0848 71.1189 33.1226 72.9992 39.612 72.9992" fill="#1DA1F2"/>
</svg>
