<svg width="100" height="100" viewBox="0 0 100 100" fill="none" xmlns="http://www.w3.org/2000/svg">
<rect width="100" height="100" fill="white"/>
<path d="M63.5375 42.079C63.5375 42.079 58.997 56.0408 58.627 57.1933C58.4925 56.0079 55.1628 30.949 55.1628 30.949C47.427 30.949 43.2901 36.3493 41.1039 42.046C41.1039 42.046 35.588 56.0408 35.1171 57.2263C35.0835 56.1396 34.2763 42.2107 34.2763 42.2107C33.8054 35.2297 27.2805 30.9819 22 30.9819L28.3904 68.949C36.4961 68.916 40.8685 63.5486 43.1556 57.8519C43.1556 57.8519 48.0324 45.5036 48.2342 44.9438C48.2679 45.4706 51.7321 68.949 51.7321 68.949C59.8715 68.949 64.2438 63.9108 66.5982 58.4117L78 30.9819C69.9616 30.9819 65.7237 36.3493 63.5375 42.079Z" fill="#4353FF"/>
</svg>
