<svg width="100" height="100" viewBox="0 0 100 100" fill="none" xmlns="http://www.w3.org/2000/svg">
<rect width="100" height="100" fill="white"/>
<path d="M51.7455 69.9487L39.846 69.7317C35.9931 69.6562 32.1307 69.8072 28.3536 69.0238C22.6073 67.8535 22.2003 62.1153 21.7743 57.3019C21.1873 50.535 21.4145 43.6453 22.5221 36.9349C23.1469 33.1692 25.6082 30.923 29.4138 30.6776C42.26 29.7904 55.1914 29.8942 68.0091 30.3095C69.3629 30.3472 70.7261 30.5549 72.0609 30.7908C78.6496 31.9423 78.8105 38.445 79.2365 43.919C79.6625 49.4496 79.4827 55.0085 78.6685 60.5014C78.0153 65.0505 76.7658 68.8634 71.4929 69.2315C64.8852 69.7128 58.4289 70.0998 51.8023 69.9771C51.8023 69.9488 51.7645 69.9487 51.7455 69.9487V69.9487ZM44.7497 58.4345C49.7291 55.5842 54.6139 52.7812 59.5649 49.9498C54.576 47.0995 49.7007 44.2965 44.7497 41.4651V58.4345Z" fill="#FF0000"/>
</svg>
